<svg id="Group_208" data-name="Group 208" xmlns="http://www.w3.org/2000/svg" xmlns:xlink="http://www.w3.org/1999/xlink" width="234" height="206.571" viewBox="0 0 234 206.571">
  <defs>
    <clipPath id="clip-path">
      <rect id="Rectangle_157" data-name="Rectangle 157" width="234" height="206.571" fill="none"/>
    </clipPath>
  </defs>
  <g id="Group_207" data-name="Group 207" clip-path="url(#clip-path)">
    <path id="Path_242" data-name="Path 242" d="M461.334,20.391H442.412a2.959,2.959,0,0,1-2.951-2.951V10.078a2.96,2.96,0,0,1,2.951-2.951h18.922c1.623,0,1.959.878.741,1.955L459,11.8a2.546,2.546,0,0,0,0,3.91l3.076,2.722c1.217,1.074.882,1.955-.741,1.955" transform="translate(-284.015 -4.606)" fill="#f23b3b"/>
    <path id="Path_243" data-name="Path 243" d="M361.393,109.007v64.084a4.562,4.562,0,0,1-1.981,3.77,3.994,3.994,0,0,1-.513.306H197.117v-68.16A38.195,38.195,0,0,1,235.334,70.79h87.842a38.219,38.219,0,0,1,38.084,35.026q.11,1.317.129,2.656c0,.177,0,.358,0,.535" transform="translate(-127.393 -45.75)" fill="#007497"/>
    <path id="Path_244" data-name="Path 244" d="M419.691,105.816H287.527V70.79h94.08a38.219,38.219,0,0,1,38.084,35.026" transform="translate(-185.823 -45.75)" fill="#068faf"/>
    <path id="Path_245" data-name="Path 245" d="M388.657,99.6H321.371a3.427,3.427,0,0,1-3.427-3.427V95.88a3.427,3.427,0,0,1,3.427-3.427h67.286a3.427,3.427,0,0,1,3.427,3.427v.293a3.427,3.427,0,0,1-3.427,3.427" transform="translate(-205.481 -59.751)" fill="#d7dee4"/>
    <path id="Path_246" data-name="Path 246" d="M404.183,119.186h-49.66a1.3,1.3,0,0,1-1.3-1.3v-.111a1.3,1.3,0,0,1,1.3-1.3h49.66a1.3,1.3,0,0,1,1.3,1.3v.111a1.3,1.3,0,0,1-1.3,1.3" transform="translate(-228.283 -75.279)" fill="#57b0c6"/>
    <path id="Path_247" data-name="Path 247" d="M217.852,69.4h0a33.358,33.358,0,0,0-33.358,33.358v74H251.21v-74A33.358,33.358,0,0,0,217.852,69.4" transform="translate(-119.235 -44.852)" fill="#5fb6c5"/>
    <path id="Path_248" data-name="Path 248" d="M475.129,172.469H373.108v-2.656H475q.111,1.317.129,2.656" transform="translate(-241.133 -109.747)" fill="#005774"/>
    <path id="Path_249" data-name="Path 249" d="M251.957,119.708v74.477H194.236V119.708c0-18.542,12.923-33.575,28.86-33.575s28.86,15.033,28.86,33.575" transform="translate(-125.531 -55.666)" fill="#002e44"/>
    <path id="Path_250" data-name="Path 250" d="M55.143,122.584v26.373a5.344,5.344,0,0,1-1.992,4.164c-.107.085-.214.166-.328.243a5.325,5.325,0,0,1-3.028.941H5.348a5.333,5.333,0,0,1-3.464-1.272,5.251,5.251,0,0,1-.6-.6A5.344,5.344,0,0,1,0,149.049a.809.809,0,0,1,0-.092V122.584a5.334,5.334,0,0,1,1.745-3.95,5.208,5.208,0,0,1,1.317-.881,5.275,5.275,0,0,1,2.287-.516H49.8a5.351,5.351,0,0,1,5.348,5.348" transform="translate(0 -75.767)" fill="#f23b3b"/>
    <path id="Path_251" data-name="Path 251" d="M436.5,60.937H429.33V3.436A3.437,3.437,0,0,1,432.766,0h.294A3.436,3.436,0,0,1,436.5,3.436Z" transform="translate(-277.468)" fill="#ff8a25"/>
    <path id="Path_252" data-name="Path 252" d="M432.914,0c-.032,0-.062,0-.093,0a3.572,3.572,0,0,1,1.07,2.552V59.911h-4.56v1.026H436.5V3.583A3.583,3.583,0,0,0,432.914,0" transform="translate(-277.468)" fill="#fdcb49"/>
    <rect id="Rectangle_155" data-name="Rectangle 155" width="2.438" height="11.167" transform="translate(154.844 57.132)" fill="#b1e0d9"/>
    <path id="Path_253" data-name="Path 253" d="M433.137,167.107a5.588,5.588,0,1,1-5.588-5.588,5.588,5.588,0,0,1,5.588,5.588" transform="translate(-272.706 -104.387)" fill="#b1e0d9"/>
    <path id="Path_254" data-name="Path 254" d="M439.171,167.107a5.588,5.588,0,1,1-5.588-5.588,5.588,5.588,0,0,1,5.588,5.588" transform="translate(-276.606 -104.387)" fill="#cffdf8"/>
    <path id="Path_255" data-name="Path 255" d="M441.6,172.47a2.652,2.652,0,1,1-2.652-2.652,2.652,2.652,0,0,1,2.652,2.652" transform="translate(-281.969 -109.75)" fill="#176d81"/>
    <path id="Path_256" data-name="Path 256" d="M475.133,350.065V354.6a3.415,3.415,0,0,1-1.981,2.934,4.349,4.349,0,0,1-.513.238,5.612,5.612,0,0,1-2.084.391H373.108v-8.094Z" transform="translate(-241.133 -226.24)" fill="#5fb6c5"/>
    <path id="Path_257" data-name="Path 257" d="M467.878,32.509H449.586V25.877h15.042a2.606,2.606,0,0,0,.915,1.955l3.076,2.722c1.217,1.074.881,1.955-.741,1.955" transform="translate(-290.559 -16.724)" fill="#a72223"/>
    <path id="Path_258" data-name="Path 258" d="M539.084,99.6h-3.29a3.427,3.427,0,0,1-3.426-3.427V95.88a3.427,3.427,0,0,1,3.426-3.427h3.29a3.427,3.427,0,0,1,3.427,3.427v.293a3.427,3.427,0,0,1-3.427,3.427" transform="translate(-344.059 -59.751)" fill="#8cb9cd"/>
    <path id="Path_259" data-name="Path 259" d="M373.108,238.424l102.021-61.1,0,61.1Z" transform="translate(-241.133 -114.599)" fill="#006284"/>
    <path id="Path_260" data-name="Path 260" d="M423.477,372.947v60.732a13.92,13.92,0,0,1-13.463,13.913c-.151,0-.306.007-.461.007a13.9,13.9,0,0,1-13.913-13.493c-.007-.14-.007-.284-.007-.428V372.947Z" transform="translate(-255.689 -241.028)" fill="#ff8a25"/>
    <path id="Path_261" data-name="Path 261" d="M404.606,417.044v53.5a13.927,13.927,0,0,1-8.967-12.589c-.007-.14-.007-.284-.007-.428V417.044c0-3.973,2.01-7.193,4.489-7.193a3.888,3.888,0,0,1,3.172,2.106,9.76,9.76,0,0,1,1.313,5.086" transform="translate(-255.689 -264.879)" fill="#fdcb49"/>
    <path id="Path_262" data-name="Path 262" d="M460.206,385.356V441.7a13.918,13.918,0,0,1-7.742,12.475V385.356Z" transform="translate(-292.419 -249.048)" fill="#e5721c"/>
    <rect id="Rectangle_156" data-name="Rectangle 156" width="27.845" height="6.599" transform="translate(139.943 131.918)" fill="#bf5e16"/>
    <path id="Path_263" data-name="Path 263" d="M259.625,354.112H210.12a4.274,4.274,0,0,1-4.274-4.274v-.366a4.274,4.274,0,0,1,4.274-4.274h49.505Z" transform="translate(-133.034 -223.095)" fill="#ff8a25"/>
    <path id="Path_264" data-name="Path 264" d="M268.162,341.6H220a.943.943,0,0,1-.943-.943v-.081a.943.943,0,0,1,.943-.943h48.164Z" transform="translate(-141.57 -219.5)" fill="#fdcb49"/>
    <path id="Path_265" data-name="Path 265" d="M161.653,365.451H64.359a5.2,5.2,0,0,0,0,10.4h97.294a5.2,5.2,0,1,0,0-10.4" transform="translate(-38.235 -236.184)" fill="#60b5c5"/>
    <path id="Path_266" data-name="Path 266" d="M290.916,375.847H255.15a4.985,4.985,0,0,1-4.986-4.985v-.427a4.985,4.985,0,0,1,4.986-4.986h35.767a4.985,4.985,0,0,1,4.985,4.986v.427a4.985,4.985,0,0,1-4.985,4.985" transform="translate(-161.676 -236.183)" fill="#026f82"/>
    <path id="Path_267" data-name="Path 267" d="M55.143,122.584v26.373a5.344,5.344,0,0,1-1.992,4.164c-12.578-15.39-25.48-16.846-25.48-16.846A54.974,54.974,0,0,0,1.885,153.033a5.251,5.251,0,0,1-.6-.6A5.344,5.344,0,0,1,0,149.049a.809.809,0,0,1,0-.092V122.584a5.334,5.334,0,0,1,1.745-3.95,5.208,5.208,0,0,1,1.317-.881,5.275,5.275,0,0,1,2.287-.516H49.8a5.351,5.351,0,0,1,5.348,5.348" transform="translate(0 -75.767)" fill="#e23434"/>
    <path id="Path_268" data-name="Path 268" d="M57.879,118.677c-5.961,6.164-14.817,16.41-18.564,19.214-5.9,4.411-11.435,0-11.435,0L8.656,118.581c.693-.332,1.468.775,2.287.775H55.389c.9,0,1.745-1.07,2.49-.679" transform="translate(-5.594 -76.597)" fill="#a72223"/>
    <path id="Path_269" data-name="Path 269" d="M57.879,117.847c-5.961,6.164-14.817,15.119-18.564,17.923-5.9,4.412-11.435,0-11.435,0L8.656,117.751a5.275,5.275,0,0,1,2.287-.516H55.389a5.336,5.336,0,0,1,2.49.612" transform="translate(-5.594 -75.767)" fill="#fd4e4e"/>
    <path id="Path_270" data-name="Path 270" d="M149.411,191.819v26.373a5.344,5.344,0,0,1-1.992,4.164c-.107.085-.214.166-.328.243a5.326,5.326,0,0,1-3.028.941H99.616a5.333,5.333,0,0,1-3.464-1.273,5.251,5.251,0,0,1-.6-.6,5.345,5.345,0,0,1-1.276-3.379.811.811,0,0,1,0-.092V191.819a5.335,5.335,0,0,1,1.745-3.95,5.207,5.207,0,0,1,1.317-.881,5.274,5.274,0,0,1,2.287-.516h44.447a5.351,5.351,0,0,1,5.348,5.348" transform="translate(-60.924 -120.513)" fill="#ffa93c"/>
    <path id="Path_271" data-name="Path 271" d="M149.411,191.819v26.373a5.344,5.344,0,0,1-1.992,4.164c-12.578-15.39-25.48-16.846-25.48-16.846a54.974,54.974,0,0,0-25.787,16.757,5.251,5.251,0,0,1-.6-.6,5.345,5.345,0,0,1-1.276-3.379.811.811,0,0,1,0-.092V191.819a5.335,5.335,0,0,1,1.745-3.95,5.207,5.207,0,0,1,1.317-.881,5.274,5.274,0,0,1,2.287-.516h44.447a5.351,5.351,0,0,1,5.348,5.348" transform="translate(-60.924 -120.513)" fill="#ff8a28"/>
    <path id="Path_272" data-name="Path 272" d="M152.146,187.913c-5.961,6.164-14.817,16.41-18.564,19.214-5.9,4.411-11.435,0-11.435,0l-19.224-19.31c.693-.332,1.468.775,2.287.775h44.447c.9,0,1.745-1.07,2.49-.679" transform="translate(-66.517 -121.343)" fill="#bf5e16"/>
    <path id="Path_273" data-name="Path 273" d="M152.146,187.083c-5.961,6.164-14.817,15.119-18.564,17.923-5.9,4.412-11.435,0-11.435,0l-19.224-18.018a5.274,5.274,0,0,1,2.287-.516h44.447a5.337,5.337,0,0,1,2.49.612" transform="translate(-66.517 -120.513)" fill="#ffc94c"/>
    <path id="Path_274" data-name="Path 274" d="M327.524,352.362H314.341a3.435,3.435,0,0,1-3.435-3.435v-.294a3.435,3.435,0,0,1,3.435-3.435h13.183Z" transform="translate(-200.933 -223.095)" fill="#e5721c"/>
    <path id="Path_275" data-name="Path 275" d="M311.967,341.6H287.778a.943.943,0,0,1-.943-.943v-.081a.943.943,0,0,1,.943-.943h24.189Z" transform="translate(-185.376 -219.5)" fill="#ffa93c"/>
    <path id="Path_276" data-name="Path 276" d="M314.5,274.513H291.007V242.366a3.5,3.5,0,0,1,3.5-3.5h20Z" transform="translate(-188.072 -154.377)" fill="#fff"/>
    <path id="Path_277" data-name="Path 277" d="M309.852,279.334h-.372a4.345,4.345,0,0,1-4.345-4.345v-15.3a4.345,4.345,0,0,1,4.345-4.345h.372a4.345,4.345,0,0,1,4.345,4.345v15.3a4.345,4.345,0,0,1-4.345,4.345" transform="translate(-197.203 -165.026)" fill="#c6c6c6"/>
    <path id="Path_278" data-name="Path 278" d="M154.589,397.488H88.046a2.643,2.643,0,0,1-2.643-2.643h71.829a2.643,2.643,0,0,1-2.643,2.643" transform="translate(-55.194 -255.181)" fill="#d7dee4"/>
  </g>
</svg>
