<svg xmlns="http://www.w3.org/2000/svg" viewBox="0 0 2454.5 353.66"><g id="bc8dc04b-bf71-4515-891d-ebd2274e3f64" data-name="Layer 1"><path d="M642,88.54l.31,50.88h-12c-7.58-36.66-26.22-56.25-56.87-56.25-43.61,0-63.84,43.61-63.84,97.32,0,58.78,23.39,104,66.68,104,29.7,0,49.93-18.65,61-64.78h12.64l-4.74,59.4c-18.65,12-43.29,19-73,19-68.88,0-111.54-43.29-111.54-108.7,0-73.31,49-119.44,111.54-119.44C600.26,69.9,624,76.85,642,88.54Z" style="fill:#fff"/><path d="M669.77,214.94c0-53.72,35.08-90.69,82.16-90.69,48.35,0,81.21,33.49,81.21,83.42,0,53.72-35.08,90.37-82.16,90.37C702.63,298,669.77,265.18,669.77,214.94Zm116.6,3.47c0-46.76-10.74-82.47-36-82.47-23.38,0-34.13,26.54-34.13,67.94,0,46.77,11.06,82.79,36.34,82.79C775.94,286.67,786.37,259.81,786.37,218.41Z" style="fill:#fff"/><path d="M910.56,270.55c0,11.06,5.05,13,19.91,13.91v10.42H847V284.46c14.85-.95,19.91-2.85,19.91-13.91V158.69l-19-11.06v-6l55.62-17.38h6.95Zm-48-190.23c0-13.58,10.42-25,25.59-25,15.49,0,25.91,11.38,25.91,25,0,13.28-10.42,25-25.91,25C873,105.29,862.53,93.6,862.53,80.32Z" style="fill:#fff"/><path d="M1065.39,178.28c0-18.33-7-27.49-24.33-27.49-13.27,0-25.28,6-35.39,13v106.8c0,11.06,4.74,13,19.27,13.91v10.42H942.15V284.46c14.86-.95,19.91-2.85,19.91-13.91V158.69l-19-11.06v-6l56.57-17.38h7.26l-1.26,31c13.59-15.8,31.6-31,58.46-31,29.7,0,45.19,17.06,45.19,51.5v94.8c0,11.06,5,13,19.59,13.91v10.42h-82.79V284.46c14.53-.95,19.27-2.85,19.27-13.91Z" style="fill:#fff"/><path d="M1207.9,214.62c0,38.55,16.75,61.94,51.51,61.94s58.78-18.33,58.78-63.83V106.24c0-17.07-4.11-19.91-30-22.12V73.06h72.36V84.12c-22.12,2.52-25.28,5-25.28,22.12V218.41c0,54.35-37.29,79.63-84,79.63-55.93,0-89.43-25.91-89.43-80.26V105.92c0-17.38-3.16-19.28-25.28-21.8V73.06h96.69V84.12c-22.11,2.52-25.28,4.42-25.28,21.8Z" style="fill:#fff"/><path d="M1490.09,178.28c0-18.33-6.95-27.49-24.33-27.49-13.27,0-25.28,6-35.39,13v106.8c0,11.06,4.74,13,19.27,13.91v10.42h-82.79V284.46c14.85-.95,19.91-2.85,19.91-13.91V158.69l-19-11.06v-6l56.56-17.38h7.27l-1.26,31c13.58-15.8,31.6-31,58.46-31,29.7,0,45.18,17.06,45.18,51.5v94.8c0,11.06,5.06,13,19.59,13.91v10.42h-82.79V284.46c14.54-.95,19.28-2.85,19.28-13.91Z" style="fill:#fff"/><path d="M1627.55,270.55c0,11.06,5,13,19.9,13.91v10.42H1564V284.46c14.85-.95,19.91-2.85,19.91-13.91V158.69l-19-11.06v-6l55.61-17.38h7Zm-48-190.23c0-13.58,10.42-25,25.59-25,15.48,0,25.91,11.38,25.91,25,0,13.28-10.43,25-25.91,25C1589.94,105.29,1579.52,93.6,1579.52,80.32Z" style="fill:#fff"/><path d="M1716.65,127.41h41.08v14.53h-41.08v104.6c0,19.27,7.27,27.49,22.12,27.49,8.85,0,15.8-2.85,23.7-8.85l3.8,5.69c-10.12,15.8-25.92,27.17-48.67,27.17-25.91,0-44.87-13.58-44.87-49V141.94h-19.59v-7.26c21.8-9.8,40.45-27.5,54-48.35h9.48Z" style="fill:#fff"/><path d="M1914.78,190.29v7.27h-103c-1.26,44.24,21.49,70.47,52.45,70.47,21.49,0,35.71-9.17,47.09-25.6l5,2.84c-8.21,31.29-31.28,52.77-67.62,52.77-45.82,0-76.47-33.81-76.47-82.47,0-54,34.76-91.32,78-91.32C1892.66,124.25,1914.78,152.37,1914.78,190.29Zm-102.38-4.42h63.2c0-29.71-7.9-49.93-28.44-49.93C1826.3,135.94,1814.93,156.8,1812.4,185.87Z" style="fill:#fff"/><path d="M2027.59,69.26V62.63l55.93-15.17h7V261.39c0,10.74.63,14.22,12.64,15.17l7.9.63v9.48L2053.5,298h-8.21l1.26-29.38c-12.64,18-28.75,29.38-50.87,29.38-38.24,0-63.83-31-63.83-79,0-59.73,35.39-94.17,80.57-94.17,14.54,0,26.55,4.11,34.13,11.06V79.06Zm-52.45,134.62c0,38.55,15.8,67.3,44.55,67.3,10.75,0,19.59-3.47,26.86-10.11V177.65c0-24.65-10.43-39.18-29.38-39.18C1990.62,138.47,1975.14,164.38,1975.14,203.88Z" style="fill:#fff"/><path d="M2152.1,243.06a27,27,0,0,1,27.17,27.49c0,15.8-12,27.49-27.17,27.49a27.49,27.49,0,1,1,0-55Z" style="fill:#fff"/><path d="M2259.22,270.55c0,11.06,5.05,13,19.9,13.91v10.42H2195.7V284.46c14.85-.95,19.91-2.85,19.91-13.91V158.69l-19-11.06v-6l55.62-17.38h6.95Zm-48-190.23c0-13.58,10.42-25,25.59-25,15.49,0,25.91,11.38,25.91,25,0,13.28-10.42,25-25.91,25C2221.61,105.29,2211.19,93.6,2211.19,80.32Z" style="fill:#fff"/><path d="M2291.13,214.94c0-53.72,35.08-90.69,82.16-90.69,48.35,0,81.21,33.49,81.21,83.42,0,53.72-35.08,90.37-82.16,90.37C2324,298,2291.13,265.18,2291.13,214.94Zm116.6,3.47c0-46.76-10.74-82.47-36-82.47-23.39,0-34.13,26.54-34.13,67.94,0,46.77,11.06,82.79,36.34,82.79C2397.3,286.67,2407.73,259.81,2407.73,218.41Z" style="fill:#fff"/><path d="M175.6,6.71A171.52,171.52,0,1,0,347.12,178.23,171.52,171.52,0,0,0,175.6,6.71Zm0,311.7A140.18,140.18,0,1,1,315.78,178.23,140.18,140.18,0,0,1,175.6,318.41Z" style="fill:#fff"/><path d="M175.6,353.66C78.87,353.66.17,275,.17,178.23S78.87,2.79,175.6,2.79,351,81.49,351,178.23,272.34,353.66,175.6,353.66Zm0-343C83.19,10.63,8,85.81,8,178.23s75.19,167.6,167.6,167.6,167.6-75.19,167.6-167.6S268,10.63,175.6,10.63Zm0,311.7c-79.45,0-144.09-64.65-144.09-144.1S96.15,34.13,175.6,34.13s144.1,64.64,144.1,144.1S255.06,322.33,175.6,322.33ZM175.6,42C100.47,42,39.34,103.09,39.34,178.23S100.47,314.49,175.6,314.49s136.27-61.12,136.27-136.26S250.74,42,175.6,42Z" style="fill:#fff"/><circle cx="83.06" cy="83.06" r="83.06" transform="translate(-34.4 83.06) rotate(-45)" style="fill:#e58b22"/></g></svg>