<svg id="e0e1f4df-f0ed-431f-bf9f-fdf773dcfa96" data-name="圖層 1" xmlns="http://www.w3.org/2000/svg" xmlns:xlink="http://www.w3.org/1999/xlink" viewBox="0 0 206.75 206.75"><defs><clipPath id="aca75ca9-17bf-486d-863d-50dd737d41ac"><circle cx="365.76" cy="-160.28" r="103.6" style="fill:none"/></clipPath><radialGradient id="b6ad9f26-023c-4a64-bf4b-b1f9e94adfc4" cx="306.7" cy="143.17" r="222.59" gradientTransform="matrix(1, 0, 0, -1, -0.02, 75.97)" gradientUnits="userSpaceOnUse"><stop offset="0" stop-color="#ffd676"/><stop offset="0.25" stop-color="#f2a454"/><stop offset="0.38" stop-color="#f05c3c"/><stop offset="0.7" stop-color="#c22f86"/><stop offset="0.96" stop-color="#6666ad"/><stop offset="0.99" stop-color="#5c6cb2"/></radialGradient></defs><g style="clip-path:url(#aca75ca9-17bf-486d-863d-50dd737d41ac)"><circle cx="306.68" cy="-67.2" r="222.59" style="fill:url(#b6ad9f26-023c-4a64-bf4b-b1f9e94adfc4)"/></g><path d="M103.37,0h0A103.38,103.38,0,0,1,206.75,103.37h0A103.39,103.39,0,0,1,103.37,206.75h0A103.38,103.38,0,0,1,0,103.37H0A103.37,103.37,0,0,1,103.37,0Z" style="fill:#7289da"/><path d="M155.22,68c-9.49-7.59-20.87-11.38-32.88-12l-1.9,1.9c10.75,2.53,20.24,7.59,29.09,14.54a96.36,96.36,0,0,0-35.41-10.75A61.52,61.52,0,0,0,103.37,61a61.63,61.63,0,0,0-10.75.63,96.36,96.36,0,0,0-35.4,10.75c8.85-7,18.33-12,29.08-14.54L84.41,56c-12,.64-23.4,4.43-32.88,12a149.87,149.87,0,0,0-17.07,66.38c9.48,10.12,22.76,16.44,36.67,16.44,0,0,4.42-5.06,7.58-9.48A35.32,35.32,0,0,1,57.85,128a134.36,134.36,0,0,0,13.28,7c5.69,2.52,11.38,3.79,17.07,5a121.24,121.24,0,0,0,15.17,1.27A121.4,121.4,0,0,0,118.55,140c5.69-1.26,11.38-2.53,17.07-5a134.23,134.23,0,0,0,13.27-7A35.26,35.26,0,0,1,128,141.31c3.16,4.42,7.59,9.48,7.59,9.48,13.91,0,27.18-6.32,36.67-16.44A149.87,149.87,0,0,0,155.22,68ZM82.51,123c-6.32,0-12-5.69-12-12.64s5.69-12.65,12-12.65,12,5.69,12,12.65S88.83,123,82.51,123Zm41.73,0c-6.33,0-12-5.69-12-12.64s5.69-12.65,12-12.65,12,5.69,12,12.65S130.56,123,124.24,123Z" style="fill:#fff"/></svg>