<svg id="aa84ac8a-fbe1-4f7f-90b8-a366c0251cdd" data-name="圖層 1" xmlns="http://www.w3.org/2000/svg" viewBox="0 0 207.21 207.21"><path d="M103.6,0A103.61,103.61,0,1,0,207.21,103.6h0A103.6,103.6,0,0,0,103.6,0" style="fill:#fff"/><path d="M146.33,106.45l19-4.12a43.74,43.74,0,0,0-1.54-11.82c-7.71-33.4-40.63-53.44-74.07-45.73s-54,40.08-46.29,72.45,40.64,52.93,74.07,45.23c19.55-4.63,35-17.47,42.18-33.92.51-.51-28.29-6.68-28.29-6.68a32.07,32.07,0,0,1-20.06,13.36,33.67,33.67,0,0,1-35-13.36l60.18-13.36ZM70.72,98.22A32.91,32.91,0,0,1,95.92,71.5a34.29,34.29,0,0,1,35,12.85Z" style="fill:#eb572c"/></svg>