<svg id="a2b66508-9a64-46fe-af33-d3e8c84736b1" data-name="圖層 1" xmlns="http://www.w3.org/2000/svg" viewBox="0 0 207 205.74"><path d="M207,103.5A103.5,103.5,0,1,0,87.33,205.74V133.42H61.05V103.5H87.33V80.7c0-25.94,15.45-40.27,39.09-40.27a159.2,159.2,0,0,1,23.17,2V67.92H136.54c-12.86,0-16.87,8-16.87,16.17V103.5h28.71l-4.59,29.92H119.67v72.32A103.52,103.52,0,0,0,207,103.5Z" style="fill:#1877f2"/><path d="M143.79,133.42l4.59-29.92H119.67V84.09c0-8.19,4-16.17,16.87-16.17h13.05V42.45a159.2,159.2,0,0,0-23.17-2c-23.64,0-39.09,14.33-39.09,40.27v22.8H61.05v29.92H87.33v72.32a104.39,104.39,0,0,0,32.34,0V133.42Z" style="fill:#fff"/></svg>