<?xml version="1.0" encoding="UTF-8"?><svg id="a" xmlns="http://www.w3.org/2000/svg" xmlns:xlink="http://www.w3.org/1999/xlink" viewBox="0 0 207 207"><defs><style>.d{fill:#fff;}.e{fill:url(#c);}.f{clip-path:url(#b);}.g{fill:none;}</style><clipPath id="b"><circle cx="104.5" cy="103.5" r="103.6" style="fill:none;"/></clipPath><radialGradient id="c" cx="45.44" cy="390.51" fx="45.44" fy="390.51" r="222.59" gradientTransform="translate(-.02 587.1) scale(1 -1)" gradientUnits="userSpaceOnUse"><stop offset="0" stop-color="#ffd676"/><stop offset=".25" stop-color="#f2a454"/><stop offset=".38" stop-color="#f05c3c"/><stop offset=".7" stop-color="#c22f86"/><stop offset=".96" stop-color="#6666ad"/><stop offset=".99" stop-color="#5c6cb2"/></radialGradient></defs><g style="clip-path:url(#b);"><circle cx="45.41" cy="196.58" r="222.59" style="fill:url(#c);"/></g><path d="M147.61,45.5H61.39c-8.19,0-14.89,6.7-14.89,14.89v86.23c0,8.19,6.7,14.89,14.89,14.89h86.23c8.19,0,14.89-6.7,14.89-14.89V60.39c0-8.19-6.7-14.89-14.89-14.89Zm-21.83,18.11c0-2.88,2.34-5.22,5.22-5.22h13.11c2.87,0,5.22,2.35,5.22,5.22v12.5c0,2.87-2.35,5.22-5.22,5.22h-13.11c-2.88,0-5.22-2.35-5.22-5.22v-12.5Zm-21.17,17.07c12.87,0,23.3,10.11,23.3,22.57,0,12.47-10.43,22.58-23.3,22.58s-23.3-10.11-23.3-22.58,10.43-22.57,23.3-22.57Zm44.78,62.89c0,2.54-2.08,4.61-4.61,4.61H64c-2.54,0-4.6-2.07-4.61-4.61v-49.01h10.65c-.96,3.16-1.48,6.5-1.48,9.96,0,19.29,16.14,34.94,36.06,34.94s36.06-15.64,36.06-34.94c0-3.46-.52-6.8-1.49-9.96h10.21v49.01Z" style="fill:#fff;"/></svg>