<svg id="ab15029e-6367-4d79-9392-e1d707927948" data-name="圖層 1" xmlns="http://www.w3.org/2000/svg" viewBox="0 0 207.21 207.21"><path d="M103.6,0A103.61,103.61,0,1,0,207.21,103.6h0A103.6,103.6,0,0,0,103.6,0" style="fill:#3ace01"/><path d="M103.61,39.69c37.71,0,68.28,24.48,68.28,54.68a46.66,46.66,0,0,1-10.19,28.75,13.86,13.86,0,0,1-1.26,1.58l0,0a60.47,60.47,0,0,1-7.43,7.41c-18.88,17.45-50,38.23-54.07,35-3.57-2.8,5.88-16.42-5-18.69l-2.27-.29h0c-32-4.54-56.28-26.92-56.28-53.83,0-30.2,30.58-54.69,68.29-54.69Z" style="fill:#fff;fill-rule:evenodd"/><path d="M64,111.81H77.76a3.57,3.57,0,0,0,3.56-3.56V108a3.58,3.58,0,0,0-3.56-3.56H67.85V81.84a3.57,3.57,0,0,0-3.57-3.56H64a3.56,3.56,0,0,0-3.56,3.56v26.41A3.56,3.56,0,0,0,64,111.81Zm85.34-16.56V95a3.58,3.58,0,0,0-3.57-3.56h-9.91V85.75h9.92a3.58,3.58,0,0,0,3.56-3.56v-.3a3.58,3.58,0,0,0-3.56-3.56H132a3.58,3.58,0,0,0-3.56,3.56v26.42a3.58,3.58,0,0,0,3.56,3.56h13.78a3.58,3.58,0,0,0,3.56-3.56V108a3.57,3.57,0,0,0-3.56-3.56h-9.92V98.81h9.92a3.58,3.58,0,0,0,3.56-3.56Zm-26.49,15.49h0a3.53,3.53,0,0,0,1-2.49V81.84a3.57,3.57,0,0,0-3.56-3.56H120a3.56,3.56,0,0,0-3.56,3.56v15.5L103.57,80.08a3.56,3.56,0,0,0-3.09-1.8h-.29a3.57,3.57,0,0,0-3.57,3.56v26.41a3.58,3.58,0,0,0,3.57,3.56h.29a3.56,3.56,0,0,0,3.56-3.56V92.45l13,17.71a3.32,3.32,0,0,0,.26.36h0a3,3,0,0,0,1.39,1,3.46,3.46,0,0,0,1.35.27h.3a3.44,3.44,0,0,0,1.66-.42,2.49,2.49,0,0,0,.87-.64ZM87.75,111.8h.3a3.56,3.56,0,0,0,3.56-3.56V81.84a3.56,3.56,0,0,0-3.56-3.56h-.3a3.57,3.57,0,0,0-3.56,3.56v26.41a3.57,3.57,0,0,0,3.56,3.56Z" style="fill:#3ace01;fill-rule:evenodd"/></svg>