<svg id="b990c248-b194-4aaf-b4c6-bc1862fdafcd" data-name="圖層 1" xmlns="http://www.w3.org/2000/svg" xmlns:xlink="http://www.w3.org/1999/xlink" viewBox="0 0 207 207"><defs><linearGradient id="a807d82d-5166-41d7-a2ce-4bc610873182" x1="30.31" y1="176.69" x2="176.69" y2="30.31" gradientTransform="translate(103.5 -42.87) rotate(45)" gradientUnits="userSpaceOnUse"><stop offset="0" stop-color="#2489be"/><stop offset="1" stop-color="#0575b3"/></linearGradient><clipPath id="faa8ec14-eb39-458b-8c5b-2a5660b95728"><circle cx="365.89" cy="103.5" r="103.6" style="fill:none"/></clipPath><radialGradient id="e30e3647-d23a-48e7-84ae-819c38ae3982" cx="306.83" cy="406.95" r="222.59" gradientTransform="matrix(1, 0, 0, -1, -0.02, 603.53)" gradientUnits="userSpaceOnUse"><stop offset="0" stop-color="#ffd676"/><stop offset="0.25" stop-color="#f2a454"/><stop offset="0.38" stop-color="#f05c3c"/><stop offset="0.7" stop-color="#c22f86"/><stop offset="0.96" stop-color="#6666ad"/><stop offset="0.99" stop-color="#5c6cb2"/></radialGradient></defs><circle cx="103.5" cy="103.5" r="103.5" transform="translate(-42.87 103.5) rotate(-45)" style="fill:url(#a807d82d-5166-41d7-a2ce-4bc610873182)"/><rect x="53.16" y="80.12" width="22.72" height="73.42" style="fill:#fff"/><path d="M64.42,70.51A13.55,13.55,0,1,1,77.85,57,13.49,13.49,0,0,1,64.42,70.51Z" style="fill:#fff"/><path d="M161.05,153.54H138.43V115c0-10.57-4-16.47-12.37-16.47-9.1,0-13.85,6.15-13.85,16.47v38.54H90.42V80.12h21.79V90a25.62,25.62,0,0,1,22.13-12.13c15.56,0,26.71,9.51,26.71,29.17v46.49Z" style="fill:#fff"/><g style="clip-path:url(#faa8ec14-eb39-458b-8c5b-2a5660b95728)"><circle cx="306.81" cy="196.58" r="222.59" style="fill:url(#e30e3647-d23a-48e7-84ae-819c38ae3982)"/></g></svg>