<svg id="ef1189f1-a4f7-409b-968a-7bd1b2a1be29" data-name="圖層 1" xmlns="http://www.w3.org/2000/svg" viewBox="0 0 207.21 207.21"><path d="M103.6,0A103.61,103.61,0,1,0,207.21,103.6h0A103.6,103.6,0,0,0,103.6,0" style="fill:#ed1c40"/><path d="M132.47,57.84c2.33.39,8.15-6.21,21-2.72,22.12,6.6,4.26,38,1.55,43.85-3.88,7.37-20.57,39.19-5,42.3,7,1.55,17.85,0,16.3,10.09-1.16,10.47-25.22,5-29.88,2.71-20.18-8.53-15.13-29.88-5.43-45.79,3.88-8.15,17.46-27.16,8.92-30.26-5.43-1.94-11.25,13.19-13.19,17.46-2.33,4.65-17.07,33.37-20.18,38-7.76,12.41-22.12,6.21-19-4.27,4.27-13.58,21.73-45,11.25-46.57-5.43-.77-8.15,5.44-9.7,8.93-3.1,6.21-14.75,39.58-20.57,52-7.37,15.52-38.41,8.92-33-14.36C37.4,120.31,48.65,85.39,51,79.18,55.64,67.54,60.29,52.4,78.15,52c5,0,12.8,5.82,18.23,7.76,5.44,1.55,9.32-9.32,19.41-10.09C128.2,48.91,127.82,57.45,132.47,57.84Z" style="fill:#fff"/></svg>