<svg id="bfef12c1-684f-4413-bd49-e41d962951e4" data-name="圖層 1" xmlns="http://www.w3.org/2000/svg" viewBox="0 0 207.21 207.21"><path d="M103.6,0A103.61,103.61,0,1,0,207.21,103.6h0A103.6,103.6,0,0,0,103.6,0" style="fill:#fff"/><g id="e64c3cdb-a760-4390-b573-ae9e65373705" data-name="Layer 2"><path d="M72.41,63A40.57,40.57,0,0,0,32,103.71c2.13,54,78.74,54,80.86,0A40.57,40.57,0,0,0,72.41,63ZM137,65.39c-11.16,0-20.21,17.16-20.21,38.32,1.11,50.85,39.33,50.85,40.43,0C157.2,82.55,148.15,65.39,137,65.39Zm31.25,4c-9.33.67-9.31,68,0,68.67C177.57,137.39,177.55,70,168.23,69.37Z" style="fill:#141414"/></g></svg>