<svg id="b219de7f-ebb2-413b-b5e8-e8075e07d97a" data-name="圖層 1" xmlns="http://www.w3.org/2000/svg" viewBox="0 0 200.36 200.36"><path d="M100.18,0A100.18,100.18,0,1,0,200.36,100.18,100.18,100.18,0,0,0,100.18,0h0" style="fill:#fff"/><path d="M155.44,79a5.09,5.09,0,1,0-5.09-5.09A5.08,5.08,0,0,0,155.44,79Z" style="fill:#027ea2"/><path d="M126.2,79a5.08,5.08,0,1,0,0-10.16h0a5.08,5.08,0,1,0,0,10.16Z" style="fill:#ff8200"/><path d="M97,79A5.08,5.08,0,1,0,97,68.8h0A5.08,5.08,0,1,0,97,79Z" style="fill:#ec2c91"/><path d="M44.81,79a5.08,5.08,0,0,0,0-10.16h0a5.08,5.08,0,1,0,0,10.16Z" style="fill:#19367e"/><path d="M60.91,84.24h-.78a3.61,3.61,0,0,0-3.23,1.84L44.61,105.3,32.37,86.14a3.76,3.76,0,0,0-3.29-1.9h-.75a3.55,3.55,0,0,0-3.57,3.55v33.9h0a3.39,3.39,0,0,0,3.33,3.46h.13a3.44,3.44,0,0,0,3.52-3.36V97.51l9.81,14.72a3.31,3.31,0,0,0,5.94,0l9.87-14.83v24.24a3.58,3.58,0,0,0,3.53,3.52h0a3.52,3.52,0,0,0,3.57-3.44V87.82A3.56,3.56,0,0,0,60.91,84.24Z" style="fill:#16387a"/><path d="M83.72,93.76c-8.71,0-14.89,7.16-14.89,15.87v.11c0,9.4,6.81,15.82,15.64,15.82a15.67,15.67,0,0,0,11-4,3,3,0,0,0,.92-2.14h0a2.74,2.74,0,0,0-2.66-2.82h-.11a2.54,2.54,0,0,0-1.79.63,10.92,10.92,0,0,1-7.21,2.65c-4.5,0-8-2.77-8.77-7.73H94.91a3.27,3.27,0,0,0,3.29-3.24v-.1C98.2,101.72,93.42,93.76,83.72,93.76Zm-8,13.74c.63-4.74,3.63-8,7.9-8,4.62,0,7.27,3.53,7.74,8Z" style="fill:#16387a"/><path d="M155.49,87.59A3.48,3.48,0,0,0,152,84.18a3.64,3.64,0,0,0-3.47,2.54l-9.29,27.81L130.11,86.9a3.69,3.69,0,0,0-3.58-2.83H126a3.73,3.73,0,0,0-3.57,2.83l-9.12,27.63L104,86.78a3.61,3.61,0,0,0-3.52-2.6A3.47,3.47,0,0,0,97.16,89L109.1,122.5c.7,1.85,2,2.94,3.7,2.94h.69a3.9,3.9,0,0,0,3.69-2.94l9-26.38,9,26.38a3.83,3.83,0,0,0,3.64,2.94h.69a3.94,3.94,0,0,0,3.69-2.94l12-33.47A4.27,4.27,0,0,0,155.49,87.59Z" style="fill:#007697"/><polygon points="139.51 125.44 139.51 125.44 139.51 125.44 139.51 125.44" style="fill:#848e9c"/><path d="M169.12,93.76c-8.71,0-14.89,7.15-14.89,15.86v.12c0,9.4,6.81,15.81,15.64,15.81a15.71,15.71,0,0,0,11-4,3.06,3.06,0,0,0,.92-2.14h0a2.76,2.76,0,0,0-2.67-2.83H179a2.63,2.63,0,0,0-1.79.64,11,11,0,0,1-7.21,2.65h0c-4.5,0-8-2.77-8.77-7.73h19.11a3.26,3.26,0,0,0,3.28-3.24v-.11C183.6,101.72,178.81,93.76,169.12,93.76Zm-8,13.74c.63-4.74,3.64-8,7.91-8,4.61,0,7.27,3.53,7.73,8Z" style="fill:#007697"/></svg>