<svg id="b8bbb639-2e16-47c0-a731-62bde80e5355" data-name="圖層 1" xmlns="http://www.w3.org/2000/svg" viewBox="0 0 208.47 208.47"><circle cx="104.23" cy="104.23" r="104.23" style="fill:#ff4500"/><path d="M175.17,105.52a15.23,15.23,0,0,0-25.75-10.44,74.24,74.24,0,0,0-40.14-12.83l6.77-32.51,22.3,4.69A10.42,10.42,0,1,0,147.6,43a10.31,10.31,0,0,0-7.87,5.1L114.18,43a3.23,3.23,0,0,0-3.86,2.46v.05l-7.7,36.17A74.73,74.73,0,0,0,62,94.46a15.21,15.21,0,0,0-20.83,22.18,14.72,14.72,0,0,0,4.1,2.74,32,32,0,0,0,0,4.59c0,23.34,27.2,42.33,60.75,42.33s60.76-19,60.76-42.33a35.15,35.15,0,0,0,0-4.59A15.21,15.21,0,0,0,175.17,105.52ZM70.94,116A10.44,10.44,0,1,1,81.38,126.4,10.46,10.46,0,0,1,70.94,116Zm60.55,28.66a40,40,0,0,1-25.76,8,40,40,0,0,1-25.75-8,2.82,2.82,0,0,1,4-4,34.06,34.06,0,0,0,21.69,6.56,34.31,34.31,0,0,0,21.79-6.35,2.91,2.91,0,0,1,4.07,4.17h0v-.41ZM120.1,116a10.44,10.44,0,1,1,10.44,10.44A10.46,10.46,0,0,1,120.1,116Z" style="fill:#fff"/></svg>