<svg xmlns="http://www.w3.org/2000/svg" xmlns:xlink="http://www.w3.org/1999/xlink" width="23" height="35" viewBox="0 0 23 35">
  <defs>
    <clipPath id="clip-path">
      <rect id="Rectangle_171" data-name="Rectangle 171" width="23" height="35" fill="none"/>
    </clipPath>
  </defs>
  <g id="Group_212" data-name="Group 212" transform="translate(23 35) rotate(180)">
    <g id="Group_211" data-name="Group 211" clip-path="url(#clip-path)">
      <path id="Path_280" data-name="Path 280" d="M17.834,12.42a5.212,5.212,0,0,0-2.332.55L9.789,7.361a4.972,4.972,0,0,0,.56-2.29A5.119,5.119,0,0,0,5.184,0,5.119,5.119,0,0,0,.019,5.071a5.12,5.12,0,0,0,5.166,5.072,5.206,5.206,0,0,0,2.661-.731l5.569,5.467a4.97,4.97,0,0,0-.1,5.068l-5.65,5.547a5.214,5.214,0,0,0-2.5-.636A5.072,5.072,0,1,0,5.165,35a5.118,5.118,0,0,0,5.165-5.071,4.974,4.974,0,0,0-.647-2.456l5.65-5.548a5.215,5.215,0,0,0,2.5.636,5.072,5.072,0,1,0,0-10.142M2.871,5.071A2.314,2.314,0,1,1,5.184,7.342,2.3,2.3,0,0,1,2.871,5.071M5.165,32.2a2.271,2.271,0,1,1,2.313-2.271A2.295,2.295,0,0,1,5.165,32.2M17.834,19.762a2.271,2.271,0,1,1,2.313-2.271,2.295,2.295,0,0,1-2.313,2.271" fill="#1d1d1b"/>
    </g>
  </g>
</svg>
