<?xml version="1.0" encoding="UTF-8"?><svg id="a" xmlns="http://www.w3.org/2000/svg" viewBox="0 0 207.21 207.21"><path d="M103.6,0C46.38,0,0,46.38,0,103.6s46.38,103.6,103.6,103.6,103.6-46.38,103.6-103.6h0C207.21,46.38,160.82,0,103.6,0" style="fill:#ffe812;"/><g><path d="M103.6,39.6c-38.3,0-69.36,24.48-69.36,54.68,0,19.53,12.98,36.66,32.51,46.33-1.06,3.66-6.83,23.57-7.06,25.13,0,0-.14,1.18,.62,1.62s1.66,.1,1.66,.1c2.18-.3,25.3-16.55,29.31-19.37,4,.57,8.11,.86,12.32,.86,38.3,0,69.36-24.48,69.36-54.68s-31.05-54.68-69.36-54.68h0Z"/><path d="M66.08,113.38c-2.21,0-4-1.71-4-3.82v-23.77h-6.24c-2.17,0-3.93-1.76-3.93-3.92s1.76-3.92,3.93-3.92h20.49c2.17,0,3.93,1.76,3.93,3.92s-1.76,3.92-3.93,3.92h-6.24v23.77c0,2.11-1.79,3.82-4,3.82Zm35.09-.05c-1.67,0-2.94-.68-3.33-1.77l-1.98-5.19h-12.2l-1.98,5.19c-.38,1.09-1.66,1.76-3.33,1.76-.88,0-1.75-.19-2.54-.55-1.1-.51-2.16-1.91-.95-5.68l9.57-25.19c.67-1.92,2.72-3.89,5.33-3.95,2.61,.06,4.66,2.03,5.34,3.95l9.57,25.18c1.22,3.78,.16,5.18-.95,5.69-.8,.36-1.67,.55-2.54,.55h0Zm-7.41-14.04l-4-11.35-4,11.35h7.99Zm17.34,13.51c-2.11,0-3.83-1.65-3.83-3.67v-27.18c0-2.21,1.83-4,4.08-4s4.08,1.79,4.08,4v23.51h8.5c2.11,0,3.83,1.65,3.83,3.67s-1.72,3.67-3.83,3.67h-12.84Zm22.23,.53c-2.21,0-4-1.79-4-4v-27.37c0-2.21,1.79-4,4-4s4,1.79,4,4v8.6l11.16-11.16c.57-.57,1.36-.89,2.22-.89,1,0,2,.43,2.75,1.18,.7,.7,1.12,1.6,1.18,2.54,.06,.94-.26,1.81-.88,2.44l-9.12,9.12,9.85,13.05c.64,.85,.92,1.91,.77,2.96-.14,1.05-.7,2-1.55,2.64-.69,.53-1.54,.81-2.41,.81-1.26,0-2.44-.58-3.2-1.59l-9.38-12.43-1.39,1.39v8.73c0,2.21-1.79,4-4,4h0Z" style="fill:#ffe812;"/></g></svg>