<svg id="f0c7de6d-6773-4593-b23f-4f6db54fec24" data-name="圖層 1" xmlns="http://www.w3.org/2000/svg" xmlns:xlink="http://www.w3.org/1999/xlink" viewBox="0 0 204.44 204.44"><defs><linearGradient id="b3dffed2-3c9e-435b-b2b5-12ab4a718ddc" x1="132.2" y1="41.35" x2="81.09" y2="-77.9" gradientTransform="matrix(1, 0, 0, -1, -0.02, 73.66)" gradientUnits="userSpaceOnUse"><stop offset="0" stop-color="#37aee2"/><stop offset="1" stop-color="#1e96c8"/></linearGradient></defs><circle cx="102.22" cy="102.22" r="102.22" style="fill:url(#b3dffed2-3c9e-435b-b2b5-12ab4a718ddc)"/><path d="M38.07,102.78C50,96.2,63.36,90.7,75.82,85.18c21.44-9,43-17.93,64.71-26.2,4.23-1.41,11.83-2.79,12.58,3.48-.41,8.87-2.09,17.7-3.24,26.52-2.92,19.4-6.3,38.73-9.59,58.07-1.14,6.44-9.21,9.78-14.37,5.66C113.5,144.32,101,136,88.75,127.45c-4-4.08-.29-9.93,3.29-12.84C102.26,104.53,113.1,96,122.78,85.39c2.62-6.31-5.1-1-7.65.63-14,9.64-27.64,19.87-42.39,28.35-7.53,4.14-16.32.6-23.85-1.71-6.75-2.8-16.64-5.62-10.82-9.88Z" style="fill:#fff"/></svg>