<svg id="ba9fa346-80fd-4b5f-8346-e74ea37dac5f" data-name="圖層 1" xmlns="http://www.w3.org/2000/svg" viewBox="0 0 205.74 205.74"><circle cx="102.87" cy="102.87" r="102.87" style="fill:#2daae1"/><path d="M168.83,62a54,54,0,0,1-15.54,4.26,27.09,27.09,0,0,0,11.9-15A54,54,0,0,1,148,57.81a27.07,27.07,0,0,0-46.81,18.52,27.91,27.91,0,0,0,.69,6.17A76.86,76.86,0,0,1,46.1,54.22a27.1,27.1,0,0,0,8.38,36.13A26.9,26.9,0,0,1,42.22,87v.34a27.09,27.09,0,0,0,21.71,26.54,27.07,27.07,0,0,1-7.13.94,27.64,27.64,0,0,1-5.1-.47A27.1,27.1,0,0,0,77,133.11,54.29,54.29,0,0,1,43.37,144.7a53.1,53.1,0,0,1-6.46-.39A76.61,76.61,0,0,0,78.4,156.48c49.77,0,77-41.24,77-77,0-1.17,0-2.34-.08-3.5a55.15,55.15,0,0,0,13.52-14Z" style="fill:#fff"/></svg>