<svg id="fe715391-0b6d-42be-8668-f79300bfc1c1" data-name="圖層 1" xmlns="http://www.w3.org/2000/svg" viewBox="0 0 207.21 207.21"><path d="M103.6,0h0A103.6,103.6,0,0,1,207.21,103.6h0A103.61,103.61,0,0,1,103.6,207.21h0A103.6,103.6,0,0,1,0,103.6H0A103.6,103.6,0,0,1,103.6,0Z" style="fill:red"/><path d="M154.27,61a16.22,16.22,0,0,1,11.42,11.41c2.77,10.14,2.67,31.26,2.67,31.26s0,21-2.67,31.15a16.21,16.21,0,0,1-11.42,11.41c-10.13,2.67-50.67,2.67-50.67,2.67s-40.43,0-50.67-2.77a16.24,16.24,0,0,1-11.41-11.42c-2.67-10-2.67-31.15-2.67-31.15s0-21,2.67-31.15A16.57,16.57,0,0,1,52.93,60.93c10.14-2.66,50.67-2.66,50.67-2.66S144.14,58.27,154.27,61ZM124.41,103.6,90.7,123V84.19Z" style="fill:#fff;fill-rule:evenodd"/></svg>